#!OML:ASF X:\für Bonn\!DataBase\2005_08_11_Bastian_Final\c3d\Bastian.ASF
:FULLY-SPECIFIED
:DEGREES
181
root -1.40794 7.46027 21.3542 -932.479 -24.628 -163.306
lowerback 72.8356 5.82426 5.81084
upperback 22.7919 -5.96488 -1.61495
thorax 4.85742 -8.0306 -2.5656
lowerneck -10.3558 -10.6241 -10.1817
upperneck -20.2963 -13.609 26.9816
head -1.28754 -8.99344 9.70931
rclavicle -5.725e-014 -7.15625e-014
rhumerus 2.85662 27.537 -59.0486
rradius 50.411
rwrist -11.8588
rhand -17.1991 6.40542
rfingers 7.12502
rthumb 9.04319 -23.3807
lclavicle -5.725e-014 -7.15625e-014
lhumerus 11.3708 34.4973 62.3024
lradius 7.23276
lwrist 16.7753
lhand -25.7646 -14.6754
lfingers 7.12502
lthumb 0.773063 15.3029
rfemur -65.7701 -37.4698 32.3479
rtibia 138.23
rfoot -40.1953 -8.15939
rtoes -2.00053
lfemur -83.0271 17.9764 -22.6739
ltibia 132.982
lfoot -20.7074 -13.7374
ltoes 23.5418
182
root -1.47842 7.32377 21.3733 -933.239 -24.013 -163.332
lowerback 72.7941 5.89319 6.09968
upperback 22.879 -5.84466 -1.4761
thorax 4.97758 -8.04723 -2.59049
lowerneck -10.0209 -10.6247 -10.2121
upperneck -20.1433 -13.6126 26.6371
head -1.33329 -8.94476 9.61383
rclavicle -1.20861e-013 -1.39944e-013
rhumerus 2.52938 28.418 -58.8693
rradius 50.0846
rwrist -12.1065
rhand -17.43 6.25661
rfingers 7.12502
rthumb 8.82042 -23.5391
lclavicle -1.20861e-013 -1.39944e-013
lhumerus 10.031 34.8189 62.4267
lradius 8.17061
lwrist 17.2533
lhand -25.2784 -15.3218
lfingers 7.12502
lthumb 1.24272 14.6543
rfemur -65.418 -38.6971 31.5433
rtibia 139.083
rfoot -40.348 -7.63783
rtoes -2.33462
lfemur -83.0309 18.5447 -23.0233
ltibia 133.94
lfoot -21.0353 -13.2745
ltoes 24.3005
183
root -1.54897 7.19086 21.3924 -934.008 -23.3906 -163.388
lowerback 72.7322 5.97906 6.36028
upperback 22.9799 -5.73463 -1.34324
thorax 5.11173 -8.0735 -2.61005
lowerneck -9.60085 -10.5801 -10.2554
upperneck -20.0592 -13.5494 26.3117
head -1.42104 -8.87397 9.54594
rclavicle -7.63333e-014 8.74653e-015
rhumerus 2.30229 29.3651 -58.7407
rradius 49.6173
rwrist -12.243
rhand -17.6203 6.07923
rfingers 7.12502
rthumb 8.63677 -23.7241
lclavicle -7.63333e-014 8.74653e-015
lhumerus 8.69356 35.1861 62.3537
lradius 8.99235
lwrist 17.6471
lhand -24.7307 -15.8105
lfingers 7.12502
lthumb 1.7717 14.1619
rfemur -65.0365 -39.9425 30.6701
rtibia 139.904
rfoot -40.4705 -7.08256
rtoes -2.60013
lfemur -82.994 19.1209 -23.3964
ltibia 134.857
lfoot -21.3753 -12.7454
ltoes 24.9079
184
root -1.61882 7.06278 21.4103 -934.779 -22.761 -163.449
lowerback 72.6455 6.07985 6.59683
upperback 23.0875 -5.62703 -1.20042
thorax 5.25316 -8.10637 -2.60966
lowerneck -9.16271 -10.5174 -10.3475
upperneck -19.9833 -13.4557 26.0558
head -1.50703 -8.79118 9.51348
rclavicle -6.36111e-015 -9.62118e-014
rhumerus 2.09284 30.4206 -58.6134
rradius 49.1552
rwrist -12.4847
rhand -17.7726 5.94378
rfingers 7.12502
rthumb 8.48976 -23.8656
lclavicle -6.36111e-015 -9.62118e-014
lhumerus 7.39676 35.5765 62.2599
lradius 9.75203
lwrist 17.8894
lhand -24.193 -16.0783
lfingers 7.12502
lthumb 2.29096 13.8891
rfemur -64.5765 -41.2213 29.7218
rtibia 140.678
rfoot -40.5977 -6.52191
rtoes -3.06646
lfemur -82.895 19.7225 -23.7286
ltibia 135.724
lfoot -21.689 -12.2973
ltoes 25.6662
185
root -1.68703 6.9374 21.4277 -935.575 -22.1473 -163.495
lowerback 72.5543 6.17739 6.83736
upperback 23.2041 -5.52624 -1.01925
thorax 5.41028 -8.1521 -2.56833
lowerneck -8.77809 -10.4452 -10.4258
upperneck -19.9286 -13.358 25.7389
head -1.59957 -8.70534 9.45792
rclavicle 1.17681e-013 -1.90833e-014
rhumerus 1.92693 31.5708 -58.403
rradius 48.7127
rwrist -12.7703
rhand -17.7557 5.73863
rfingers 7.12502
rthumb 8.50608 -24.0701
lclavicle 1.17681e-013 -1.90833e-014
lhumerus 6.20984 35.9766 62.3162
lradius 10.4743
lwrist 18.085
lhand -23.7128 -16.3837
lfingers 7.12502
lthumb 2.75468 13.5782
rfemur -64.03 -42.5345 28.7121
rtibia 141.407
rfoot -40.7323 -5.9407
rtoes -3.40583
lfemur -82.7554 20.3169 -24.044
ltibia 136.559
lfoot -21.9683 -11.8573
ltoes 26.5298
186
root -1.753 6.81734 21.4444 -936.38 -21.5077 -163.544
lowerback 72.4798 6.27555 7.07821
upperback 23.3042 -5.42244 -0.836004
thorax 5.54984 -8.19755 -2.52342
lowerneck -8.46681 -10.3776 -10.5371
upperneck -19.7944 -13.2673 25.4435
head -1.65033 -8.61102 9.40281
rclavicle 4.77083e-014 9.85972e-014
rhumerus 1.71517 32.8226 -58.2184
rradius 48.2762
rwrist -13.0002
rhand -17.7207 5.55987
rfingers 7.12502
rthumb 8.53984 -24.2474
lclavicle 4.77083e-014 9.85972e-014
lhumerus 4.98257 32.8803 62.1255
lradius 10.9601
lwrist 21.5155
lhand -24.0141 -16.7429
lfingers 7.12502
lthumb 2.46379 13.2226
rfemur -63.4387 -43.7605 27.6958
rtibia 142.089
rfoot -40.8289 -5.43042
rtoes -3.88285
lfemur -82.5874 20.9672 -24.2993
ltibia 137.355
lfoot -22.2081 -11.4824
ltoes 27.3279
187
root -1.81796 6.70074 21.4583 -937.211 -20.8832 -163.594
lowerback 72.3903 6.35242 7.34098
upperback 23.4249 -5.33805 -0.654143
thorax 5.71293 -8.25245 -2.48667
lowerneck -8.16157 -10.3106 -10.6545
upperneck -19.6649 -13.178 25.1555
head -1.69975 -8.51839 9.35066
rclavicle -5.40694e-014 -9.70069e-014
rhumerus 1.58014 34.1449 -58.0875
rradius 47.7328
rwrist -13.2084
rhand -17.6075 5.35876
rfingers 7.12502
rthumb 8.64916 -24.4441
lclavicle -5.40694e-014 -9.70069e-014
lhumerus 3.48638 29.2437 61.9385
lradius 12.1377
lwrist 25.4768
lhand -24.2682 -16.7597
lfingers 7.12502
lthumb 2.21834 13.2085
rfemur -62.7158 -45.0624 26.556
rtibia 142.741
rfoot -40.958 -4.93115
rtoes -4.60212
lfemur -82.3331 21.6543 -24.5465
ltibia 138.114
lfoot -22.5035 -11.0701
ltoes 28.0075
188
root -1.88376 6.58945 21.4716 -938.032 -20.2734 -163.659
lowerback 72.2785 6.3815 7.62771
upperback 23.5569 -5.29351 -0.488175
thorax 5.88613 -8.32041 -2.46637
lowerneck -7.87778 -10.2492 -10.8639
upperneck -19.5509 -13.0899 24.9241
head -1.73661 -8.42594 9.33073
rclavicle -4.13472e-014 1.59028e-015
rhumerus 1.51711 35.5339 -57.9702
rradius 47.1224
rwrist -13.3718
rhand -17.518 5.1655
rfingers 7.12502
rthumb 8.73545 -24.6337
lclavicle -4.13472e-014 1.59028e-015
lhumerus 2.31338 26.757 62.0744
lradius 13.0629
lwrist 28.2616
lhand -24.4252 -16.963
lfingers 7.12502
lthumb 2.06666 13.0067
rfemur -61.8986 -46.4335 25.2874
rtibia 143.35
rfoot -41.1057 -4.36612
rtoes -5.13829
lfemur -82.0413 22.34 -24.8075
ltibia 138.839
lfoot -22.7916 -10.6416
ltoes 28.4552
189
root -1.95103 6.48056 21.4839 -938.862 -19.6098 -163.729
lowerback 72.1799 6.38188 7.94199
upperback 23.6728 -5.26442 -0.333352
thorax 6.04128 -8.39274 -2.46235
lowerneck -7.59354 -10.1916 -11.1749
upperneck -19.4112 -13.0003 24.7261
head -1.75488 -8.32487 9.33597
rclavicle 4.77083e-014 -6.67916e-014
rhumerus 1.4553 37.11 -57.7985
rradius 46.5568
rwrist -13.618
rhand -17.3863 4.88344
rfingers 7.12502
rthumb 8.86263 -24.9104
lclavicle 4.77083e-014 -6.67916e-014
lhumerus 1.3189 25.0752 62.3864
lradius 13.7524
lwrist 30.2777
lhand -24.4234 -17.1803
lfingers 7.12502
lthumb 2.06848 12.7894
rfemur -60.9929 -47.6459 23.974
rtibia 143.913
rfoot -41.2325 -3.87729
rtoes -5.89946
lfemur -81.6909 23.1478 -25.0312
ltibia 139.545
lfoot -23.0958 -10.219
ltoes 28.9913
190
root -2.01881 6.37588 21.4957 -939.671 -18.9779 -163.818
lowerback 72.0605 6.32156 8.3078
upperback 23.8144 -5.27737 -0.216084
thorax 6.22304 -8.47131 -2.5124
lowerneck -7.38286 -10.1527 -11.499
upperneck -19.2593 -12.9357 24.5791
head -1.74715 -8.2378 9.35121
rclavicle 2.54444e-014 -9.22361e-014
rhumerus 1.41373 38.6459 -57.718
rradius 45.931
rwrist -13.8166
rhand -17.3195 4.61328
rfingers 7.12502
rthumb 8.92702 -25.1779
lclavicle 2.54444e-014 -9.22361e-014
lhumerus 0.682644 24.4508 62.8692
lradius 14.027
lwrist 31.1978
lhand -24.295 -17.4422
lfingers 7.12502
lthumb 2.19242 12.5263
rfemur -60.0233 -48.9349 22.5184
rtibia 144.46
rfoot -41.3961 -3.37116
rtoes -6.79699
lfemur -81.324 23.9098 -25.2874
ltibia 140.22
lfoot -23.3731 -9.73294
ltoes 29.3712
191
root -2.08669 6.27232 21.5058 -940.527 -18.3084 -163.916
lowerback 71.9972 6.26331 8.68348
upperback 23.9419 -5.2964 -0.0976281
thorax 6.39535 -8.55937 -2.56204
lowerneck -7.16573 -10.1066 -11.8167
upperneck -19.114 -12.866 24.3969
head -1.74798 -8.14783 9.35579
rclavicle -1.49486e-013 -3.18055e-014
rhumerus 1.38864 40.2519 -57.6459
rradius 45.2847
rwrist -13.9879
rhand -17.2546 4.33791
rfingers 7.12502
rthumb 8.98964 -25.4506
lclavicle -1.49486e-013 -3.18055e-014
lhumerus 0.187368 24.3455 63.4102
lradius 14.0329
lwrist 31.6254
lhand -24.1067 -17.8105
lfingers 7.12502
lthumb 2.37433 12.156
rfemur -58.8984 -50.115 20.9109
rtibia 144.974
rfoot -41.5434 -2.74385
rtoes -7.46368
lfemur -80.8721 24.8235 -25.4842
ltibia 140.875
lfoot -23.6564 -9.31987
ltoes 29.7382
192
root -2.15482 6.17084 21.5153 -941.361 -17.6789 -164
lowerback 71.898 6.1397 9.08963
upperback 24.0749 -5.35832 0.00120537
thorax 6.57078 -8.65496 -2.63326
lowerneck -6.92513 -10.0532 -12.1919
upperneck -18.9894 -12.781 24.2726
head -1.75113 -8.05345 9.39276
rclavicle 4.13472e-014 3.18055e-014
rhumerus 1.33185 41.8534 -57.6064
rradius 44.6918
rwrist -14.2423
rhand -17.1817 4.01039
rfingers 7.12502
rthumb 9.06002 -25.775
lclavicle 4.13472e-014 3.18055e-014
lhumerus -0.2117 24.5904 63.9549
lradius 13.8926
lwrist 31.723
lhand -23.7949 -18.0158
lfingers 7.12502
lthumb 2.67541 11.9472
rfemur -57.6879 -51.3975 19.1504
rtibia 145.473
rfoot -41.7452 -2.03087
rtoes -8.00209
lfemur -80.4597 25.6128 -25.7233
ltibia 141.497
lfoot -23.909 -8.76228
ltoes 30.0189
